<?xml version="1.0" encoding="utf-8"?>
<!-- Generator: Adobe Illustrator 19.2.1, SVG Export Plug-In . SVG Version: 6.00 Build 0)  -->
<!DOCTYPE svg PUBLIC "-//W3C//DTD SVG 1.1//EN" "http://www.w3.org/Graphics/SVG/1.1/DTD/svg11.dtd">
<svg version="1.1" id="レイヤー_1" xmlns="http://www.w3.org/2000/svg" xmlns:xlink="http://www.w3.org/1999/xlink" x="0px"
	 y="0px" viewBox="0 0 300 300" style="enable-background:new 0 0 300 300;" xml:space="preserve">
<style type="text/css">
	.st0{fill:#FFFFFF;}
	.st1{fill:#E60012;}
</style>
<g>
	<path class="st0" d="M149.9,282.4c-9.3,0-17.9-5-22.6-13.1L5.4,56.9c-4.6-8-4.6-18,0.1-26c4.6-8,13.3-13,22.5-13h243.9
		c9.3,0,17.9,5,22.5,13s4.7,18,0,26L172.5,269.4C167.8,277.4,159.2,282.4,149.9,282.4z"/>
	<path class="st1" d="M149.9,284.5c-10,0-19.4-5.4-24.3-14.1L3.6,57.9c-5-8.7-4.9-19.4,0.1-28c5-8.6,14.3-14,24.3-14h243.9
		c10,0,19.3,5.4,24.3,14c5,8.6,5,19.4,0,28L174.2,270.4C169.2,279.1,159.9,284.5,149.9,284.5z M27.9,20c-8.5,0-16.5,4.6-20.7,12
		c-4.3,7.4-4.3,16.6,0,23.9l121.9,212.5c4.3,7.4,12.2,12,20.8,12c8.6,0,16.5-4.6,20.8-12L292.6,55.9c4.2-7.4,4.2-16.6,0-23.9
		c-4.3-7.4-12.2-12-20.7-12H27.9z"/>
	<path class="st1" d="M282.5,37.8c-2.2-3.8-6.3-6.1-10.7-6.1H27.9c-4.4,0-8.5,2.3-10.7,6.1c-2.2,3.8-2.2,8.5,0,12.3l121.9,212.5
		c2.2,3.8,6.3,6.2,10.7,6.2c4.4,0,8.5-2.4,10.7-6.2L282.5,50.1C284.7,46.3,284.7,41.6,282.5,37.8z"/>
	<g>
		<path class="st0" d="M117.8,118h-17.1V98.7h14.6c2-0.1,3.2-1.3,3.3-3.4c-0.1-2-1.3-3.2-3.4-3.3h-14.5l0-14.4
			c-0.1-1.9-1.3-3.2-3.4-3.3c-2.1,0.1-3.2,1.3-3.3,3.4V118h-8.9l0-28.1c-0.1-2-1.4-3.2-3.7-3.3c-2.1,0.2-3.2,1.3-3.3,3.4v28l-6,0
			c-1.9,0.1-3.1,1.3-3.1,3.4c0.1,1.8,1.2,3,3.2,3.1h45.7l0,0c1.8-0.1,2.9-1.3,3.1-3.2C120.8,119.3,119.8,118.1,117.8,118z"/>
		<path class="st0" d="M158,108v-7c0.8-0.1,1.7-0.2,2.5-0.2c1.3-0.1,2.7-0.3,4.1-0.4c1.7-0.3,6.8-1.1,6.8-4.3c0-2.3-1.3-3.7-3.4-3.7
			c-0.7,0-1.3,0.2-1.8,0.3c-2.2,0.6-4.9,1.1-8.3,1.3v-4.7c4.5-0.4,8.2-0.9,11-1.4c1.4-0.4,2.3-1.5,2.6-3.2l0-0.6
			c-0.7-2.7-2.4-3.1-3.4-3.1l-0.8,0c-3.2,0.6-6.3,1-9.4,1.3v-3.7c0-2.4-1.3-3.8-3.6-3.8c-1,0-3.4,0.4-3.4,3.8v4.3h-4.5
			c-1.2,0-2.9-0.1-5.1-0.2l-1.7,0c-1.3,0-2.3-0.1-3.2-0.1c-1.3,0-2,0.5-2.4,0.9c-0.8,0.6-1.2,1.5-1.2,2.4c0,2,1.1,3.3,3.3,3.6
			c3.1,0.2,7.8,0.2,15,0v4.7h-12.5c-0.9,0-1.8,0.3-2.6,1c-0.7,0.6-1.1,1.4-1.1,2.4c0,1.4,0.7,3.1,3.9,3.4c0.3,0.1,0.6,0.1,5.2,0.1
			c2.3,0,4.7,0,7.1-0.1v5.3c-1.7-0.3-4.1-0.4-7.1-0.4c-3.3,0-6,0.6-8,1.9c-2.6,1.7-3.9,4.1-3.9,7.1c0,2.8,1.5,5.2,4.2,6.8
			c2.5,1.5,5.7,2.3,9.7,2.3h0h0c8.7-0.1,11.3-4.5,11.8-8.6c1,0.5,2.3,1.2,4,2.2c1.1,0.8,2.1,1.6,3.2,2.3c2.3,1.5,3.1,1.8,3.7,1.8
			c0.8,0,1.5-0.2,2.5-0.9c0.8-0.8,1.1-1.6,1.1-2.5c0-1.3-0.5-2.3-1.4-3.1C167.7,112.4,163.4,110,158,108z M150.6,116.5
			c-1,0.8-2.4,1.2-4.3,1.3l-0.5,0c-1.4,0-2.8-0.2-4.1-0.6c-1.2-0.3-2.6-1-2.6-2c0-1.7,2-2.5,6.1-2.5c1.9,0,3.8,0.3,6.1,0.8
			C151.1,115.6,150.7,116.4,150.6,116.5z"/>
		<path class="st0" d="M235.7,111.4l-0.1-0.4c-0.9-1.7-2.2-2.1-3-2.1s-2.1,0.3-3,1.7c-2.1,2.8-4,4.2-5.5,4.3c-0.2,0-0.6-0.1-0.6-1.1
			c0-2.3,0.4-6.1,1.1-11.4c0.7-5.1,1.1-8.8,1-11.5c-0.2-4.7-2.7-7.1-7.2-7.1c-4,0-8.8,2.4-14.6,7.2c0.8-1.4,0.9-2,0.9-2.4
			c-0.1-1.2-0.9-2.2-2.3-2.8c0-1.4,0.1-2.7,0.2-3.9c0.1-1.1,0.2-1.8,0.2-2.2l0.1-0.6c0-2.4-1.3-3.8-3.4-3.8c-2.3,0-3.6,1.4-3.6,3.8
			v7.7c-4.5,1.1-7.2,1.6-8.5,1.9c-2.6,0.6-3.2,2.2-3.2,3.5c0,1.1,0.4,2,1.1,2.6c0.9,0.9,2.6,0.9,3.8,0.5l6.4-1.6v1.8
			c-1.7,3.4-3.9,7-6.4,10.7l-0.7,0.9c-1.8,2.6-3,4.3-3.6,5c-0.8,1.1-1.2,2.1-1.2,3.1c0,0.9,0.3,1.6,0.9,2.1c0.4,0.5,1.1,1.1,2.3,1.1
			c1.3,0,2.3-0.6,3.2-1.8c1.7-2.8,3.4-5.5,5.2-7.8c-0.2,5.4-0.3,10.1-0.3,12.8c0,2.2,1.2,3.6,3.3,3.7l0.1,0l0.1,0
			c1.4-0.1,3.2-0.8,3.5-3.7v-20.5c2.4-2.3,5-4.6,8.2-6.9c4.3-3.2,6.5-3.8,7.6-3.8c0.3,0,0.9,0,1.2,1.6c-0.4,3.3-0.7,6.5-0.8,9.6
			c-0.7,7.3-1.1,11.9-1.1,12.6c0,6,3.6,7.6,6.9,7.9c1.8-0.2,4-1.1,6.9-2.8c1.7-1.3,3.1-2.7,4.5-4.3c0.5-0.9,0.8-1.7,0.8-2.4
			C235.9,112.2,235.8,111.8,235.7,111.4z"/>
	</g>
</g>
</svg>
